<svg xmlns="http://www.w3.org/2000/svg" width="187.857" height="50.624"><path d="M67.159 50.616c-2.407 0-3.481-.483-3.481-3.347V35.964c0-2.863 1.074-3.347 3.481-3.347h8.128c2.407 0 3.481.484 3.481 3.347v11.305c0 2.863-1.074 3.347-3.481 3.347zm1.371-14.55c-.916 0-1.237.1-1.237 1.2v8.7c0 1.1.321 1.2 1.237 1.2h5.385c.916 0 1.236-.1 1.236-1.2v-8.7c0-1.1-.32-1.2-1.236-1.2zm17.765 14.55c-2.408 0-3.482-.483-3.482-3.347V35.964c0-2.863 1.073-3.347 3.482-3.347h8.123c2.407 0 3.481.484 3.481 3.347v11.305c0 2.863-1.074 3.347-3.481 3.347zm1.371-14.55c-.916 0-1.237.1-1.237 1.2v8.7c0 1.1.321 1.2 1.237 1.2h5.384c.916 0 1.237-.1 1.237-1.2v-8.7c0-1.1-.321-1.2-1.237-1.2zM51.269 50.624c-1.349 0-2.131-.2-2.664-1.262l-.178-.356-.178.356c-.529 1.061-1.345 1.262-2.665 1.262h-4.649c-2.407 0-3.481-.484-3.481-3.347V32.625h3.617v13.348c0 1.1.319 1.2 1.235 1.2h3.077c.916 0 1.236-.1 1.236-1.2V34.297h3.616v11.675c0 1.1.319 1.2 1.236 1.2h3.31c.916 0 1.237-.1 1.237-1.2V32.625h3.615v14.652c0 2.864-1.074 3.347-3.481 3.347zm62.131 0l-1.42-13.37c-.111-1.087-.3-1.181-1.235-1.181h-3.946c-.916 0-1.236.1-1.236 1.2v13.348h-3.616V35.972c0-2.864 1.074-3.347 3.48-3.347h6.69c2.386 0 3.157.154 3.482 3.367l1.416 14.633z" fill="#fff"/><path d="M3.481 50.624C1.074 50.624 0 50.14 0 47.277v-11.3c0-2.864 1.074-3.347 3.481-3.347h8.132v3.448H4.852c-.916 0-1.236.1-1.236 1.2v8.7c0 1.1.32 1.2 1.236 1.2h5.573c.916 0 1.237-.1 1.237-1.2v-1.743H9.32v-3.449h5.959v6.491c0 2.864-1.074 3.347-3.482 3.347zm18.821 0c-2.407 0-3.48-.484-3.48-3.347v-11.3c0-2.864 1.073-3.347 3.48-3.347h8.128c2.406 0 3.48.483 3.48 3.347v3.42c0 2.637-1.023 2.844-3.493 3.345l-7.98 1.575v1.66c0 1.1.319 1.2 1.235 1.2h9.5v3.449zm1.371-14.551c-.916 0-1.235.1-1.235 1.2v3.672l6.667-1.6c.793-.2 1.189-.3 1.189-1.2v-.878c0-1.1-.319-1.2-1.236-1.2zm107.215 14.549v-7.225h-6.519v7.225h-3.616v-18h3.616v7.326h6.519v-7.326h3.616v18zm11.142.001c-2.407 0-3.481-.483-3.481-3.347V35.971c0-2.863 1.074-3.347 3.481-3.347h8.128c2.407 0 3.481.483 3.481 3.347v11.305c0 2.863-1.074 3.347-3.481 3.347zm1.371-14.55c-.916 0-1.236.1-1.236 1.2v8.7c0 1.1.319 1.2 1.236 1.2h5.385c.916 0 1.235-.1 1.235-1.2v-8.7c0-1.1-.319-1.2-1.235-1.2zm17.761 14.55c-2.406 0-3.48-.483-3.48-3.347V32.624h3.616v13.348c0 1.1.319 1.2 1.235 1.2h5.387c.916 0 1.235-.1 1.235-1.2V32.624h3.616v14.652c0 2.863-1.073 3.347-3.48 3.347zm18.797-.001V36.04h-4.314v-3.416h12.207v3.416h-4.281v14.583z" fill="#c7c5c1"/><path d="M101.652 5.203v7.206l-7.226-1.1V3.396L90.055 2.31v16.674l-6.5-.353V.693L80.787 0l-2.768.688v17.941l-6.5.352V2.311l-4.371 1.086v7.916l-4.2.634v4.177l4.2-.409v3.5l-7.22.391v-10.4l4.54-.886V4.06l-7.352 1.835a1.453 1.453 0 00-1.1 1.41v14.86a1.455 1.455 0 001.454 1.454h36.957v-7.914l7.226.706v7.207h3.914V6.176z" fill="#cda788"/></svg>